<svg width="141" height="43" viewBox="0 0 141 43" fill="none" xmlns="http://www.w3.org/2000/svg">
<path fill-rule="evenodd" clip-rule="evenodd" d="M21.32 13.92H12.62V8.58C12.62 7.68 11.84 6.96 10.94 6.96C9.98 6.96 9.26 7.68 9.26 8.58V11.76C9.26 12.66 9.62 13.56 10.28 14.22L19.34 23.22C20.6 24.54 21.32 26.28 21.32 28.14V36C21.32 39.78 18.26 42.06 14.42 42.06H6.56C3.26 42.06 0.56 39.3 0.56 36V28.14H9.26V33.48C9.26 34.38 9.98 35.1 10.94 35.1C11.84 35.1 12.62 34.38 12.62 33.48V30.3C12.62 29.4 12.26 28.5 11.6 27.84L2.54 18.84C1.28 17.52 0.56 15.78 0.56 13.92V6.06C0.56 2.28 3.62 -2.86102e-06 7.46 -2.86102e-06H15.32L15.3258 0H11L20.9038 3.86157C21.1723 4.5459 21.32 5.28818 21.32 6.06V13.92ZM25.0648 42.06V5.484L37.8204 10.4575L39.1048 19.56L40.2316 11.3976L53.1448 16.4326V42.06H44.5648V28.44L44.9248 20.7L41.0248 42.06H37.1248L33.2248 20.7L33.5848 28.44V42.06H25.0648ZM56.0286 42.06L58.8974 18.6756L65.7708 21.3556L65.1486 28.2H67.6686L67.0932 21.8712L74.6744 24.8272L76.7886 42.06H68.9286L68.3286 35.1H64.4886L63.8886 42.06H56.0286ZM80.2648 42.06V27.0069L89.0248 30.4225V42.06H80.2648ZM80.2648 10.1709L89.0248 14.7957V6.96H93.3448V-2.86102e-06H75.9448V6.96H80.2648V10.1709ZM95.7833 36V33.0577L114.637 40.4088C113.563 41.4286 112.122 42.06 110.543 42.06H102.683C98.8433 42.06 95.7833 39.78 95.7833 36ZM120.045 31.173L128.745 35.7662V28.2H132.105V37.5401L140.667 42.06H140.805V-2.86102e-06H132.105V20.16H128.745V-2.86102e-06H120.045V31.173ZM95.7833 18.3638L104.483 22.957V8.58C104.483 7.68 105.203 6.96 106.163 6.96C107.063 6.96 107.843 7.68 107.843 8.58V13.92H116.543V6.06C116.543 2.76 113.843 -2.86102e-06 110.543 -2.86102e-06H102.683C98.8433 -2.86102e-06 95.7833 2.28 95.7833 6.06V18.3638ZM61.1771 0.0935118L72.3647 5.99999L71.6286 -2.86102e-06H61.1886L61.1771 0.0935118Z" fill="#f3aa8a"/>
</svg>
